<?xml version="1.0" encoding="UTF-8" standalone="no"?>
<!-- Svg Vector Icons : http://www.onlinewebfonts.com/icon -->

<svg
   xmlns:dc="http://purl.org/dc/elements/1.1/"
   xmlns:cc="http://creativecommons.org/ns#"
   xmlns:rdf="http://www.w3.org/1999/02/22-rdf-syntax-ns#"
   xmlns:svg="http://www.w3.org/2000/svg"
   xmlns="http://www.w3.org/2000/svg"
   xmlns:sodipodi="http://sodipodi.sourceforge.net/DTD/sodipodi-0.dtd"
   xmlns:inkscape="http://www.inkscape.org/namespaces/inkscape"
   version="1.1"
   x="0px"
   y="0px"
   viewBox="0 0 48 48"
   enable-background="new 0 0 1000 1000"
   xml:space="preserve"
   id="svg4272"
   inkscape:version="0.91 r13725"
   sodipodi:docname="wrench.svg"
   inkscape:export-filename="/home/mathieu/crafted/dev/neck-notes/src/main/resources/img/wrench.png"
   inkscape:export-xdpi="90"
   inkscape:export-ydpi="90"
   width="48"
   height="48"><defs
     id="defs4282" /><sodipodi:namedview
     pagecolor="#ffffff"
     bordercolor="#666666"
     borderopacity="1"
     objecttolerance="10"
     gridtolerance="10"
     guidetolerance="10"
     inkscape:pageopacity="0"
     inkscape:pageshadow="2"
     inkscape:window-width="1161"
     inkscape:window-height="946"
     id="namedview4280"
     showgrid="false"
     inkscape:zoom="5.3400704"
     inkscape:cx="26.891828"
     inkscape:cy="34.582546"
     inkscape:window-x="1275"
     inkscape:window-y="419"
     inkscape:window-maximized="0"
     inkscape:current-layer="svg4272" /><metadata
     id="metadata4274"> Svg Vector Icons : http://www.onlinewebfonts.com/icon <rdf:RDF><cc:Work
     rdf:about=""><dc:format>image/svg+xml</dc:format><dc:type
       rdf:resource="http://purl.org/dc/dcmitype/StillImage" /><dc:title></dc:title></cc:Work></rdf:RDF></metadata><g
     id="g4276"
     transform="matrix(0.04703051,0,0,0.04703051,0.48474489,0.48474489)"><path
       d="m 226.8,812 c 0,-10.4 -3.8,-19.3 -11.3,-26.9 -7.6,-7.6 -16.5,-11.3 -26.9,-11.3 -10.4,0 -19.3,3.8 -26.9,11.3 -7.6,7.6 -11.3,16.5 -11.3,26.9 0,10.4 3.8,19.3 11.3,26.9 7.6,7.6 16.5,11.3 26.9,11.3 10.4,0 19.3,-3.8 26.9,-11.3 7.5,-7.6 11.3,-16.5 11.3,-26.9 z M 611.4,561.2 204.1,968.5 c -14.7,14.7 -32.6,22.1 -53.7,22.1 -20.7,0 -38.8,-7.4 -54.3,-22.1 L 32.7,904 C 17.6,889.7 10,871.8 10,850.3 10,829.2 17.6,811.1 32.7,796 L 439.4,389.3 c 15.5,39 38.3,73.6 68.4,103.6 30,30 64.6,52.8 103.6,68.3 z M 990,301.4 c 0,15.5 -4.6,36.6 -13.7,63.3 -18.7,53.4 -51.5,96.6 -98.2,129.9 -46.8,33.2 -98.2,49.9 -154.4,49.9 C 650,544.5 587,518.3 534.7,466 482.3,413.6 456.2,350.6 456.2,277 456.2,203.3 482.4,140.3 534.7,88 587,35.6 650,9.4 723.7,9.4 c 23.1,0 47.3,3.3 72.6,9.9 25.3,6.6 46.7,15.8 64.2,27.8 6.4,4.4 9.6,10 9.6,16.7 0,6.8 -3.2,12.3 -9.6,16.7 l -175,100.9 0,133.8 115.3,63.9 c 2,-1.2 17.7,-10.8 47.2,-29 29.5,-18.2 56.4,-34.2 80.9,-48.4 24.5,-14.1 38.5,-21.2 42.1,-21.2 6,0 10.7,2 14,6 3.3,4 5,9 5,14.9 z"
       id="path4278"
       inkscape:connector-curvature="0" /></g></svg>